<?xml version="1.0"?>
<svg xmlns="http://www.w3.org/2000/svg" height="512px" version="1.1" viewBox="1 1 511 511.99996" width="512px">
<g id="surface1">
<path d="M 495.886719 215.894531 L 296.605469 16.613281 C 285.894531 5.898438 271.648438 0 256.5 0 C 241.351562 0 227.105469 5.898438 216.394531 16.613281 L 17.113281 215.894531 C 6.402344 226.605469 0.5 240.847656 0.5 256 C 0.5 271.152344 6.402344 285.394531 17.113281 296.105469 L 216.394531 495.386719 C 227.105469 506.101562 241.351562 512 256.5 512 C 271.648438 512 285.894531 506.101562 296.605469 495.386719 L 495.882812 296.105469 C 506.597656 285.394531 512.5 271.152344 512.5 256 C 512.5 240.847656 506.597656 226.605469 495.886719 215.894531 Z M 474.660156 274.878906 L 275.378906 474.160156 C 270.335938 479.203125 263.632812 481.980469 256.5 481.980469 C 249.367188 481.980469 242.664062 479.203125 237.621094 474.160156 L 38.339844 274.878906 C 33.296875 269.835938 30.519531 263.132812 30.519531 256 C 30.519531 248.867188 33.296875 242.164062 38.339844 237.121094 L 237.621094 37.839844 C 242.664062 32.796875 249.367188 30.019531 256.5 30.019531 C 263.632812 30.019531 270.335938 32.796875 275.378906 37.839844 L 474.660156 237.121094 C 479.703125 242.164062 482.480469 248.867188 482.480469 256 C 482.480469 263.128906 479.703125 269.835938 474.660156 274.878906 Z M 474.660156 274.878906 " style=" fill-rule:nonzero;fill-opacity:1;" stroke="#D80027" fill="#D80027"/>
<path d="M 256.953125 139.707031 C 248.664062 139.707031 241.941406 146.429688 241.941406 154.71875 L 241.941406 310.414062 C 241.941406 318.703125 248.664062 325.425781 256.953125 325.425781 C 265.242188 325.425781 271.960938 318.703125 271.960938 310.414062 L 271.960938 154.71875 C 271.960938 146.429688 265.242188 139.707031 256.953125 139.707031 Z M 256.953125 139.707031 " style=" fill-rule:nonzero;fill-opacity:1;" stroke="#D80027" fill="#D80027"/>
<path d="M 271.667969 354.511719 C 271.570312 354.03125 271.449219 353.550781 271.308594 353.09375 C 271.167969 352.621094 271 352.160156 270.808594 351.699219 C 270.628906 351.25 270.410156 350.808594 270.1875 350.378906 C 269.960938 349.949219 269.699219 349.519531 269.429688 349.121094 C 269.15625 348.710938 268.867188 348.308594 268.558594 347.929688 C 268.246094 347.546875 267.90625 347.179688 267.566406 346.828125 C 267.21875 346.488281 266.847656 346.15625 266.464844 345.835938 C 266.085938 345.535156 265.695312 345.238281 265.285156 344.964844 C 264.875 344.695312 264.453125 344.445312 264.023438 344.214844 C 263.59375 343.984375 263.144531 343.777344 262.691406 343.585938 C 262.242188 343.394531 261.773438 343.234375 261.3125 343.09375 C 260.839844 342.945312 260.363281 342.824219 259.882812 342.734375 C 259.402344 342.636719 258.910156 342.554688 258.429688 342.515625 C 257.449219 342.414062 256.449219 342.414062 255.476562 342.515625 C 254.988281 342.554688 254.5 342.636719 254.015625 342.734375 C 253.539062 342.824219 253.058594 342.945312 252.597656 343.09375 C 252.125 343.234375 251.65625 343.394531 251.207031 343.585938 C 250.753906 343.777344 250.3125 343.984375 249.886719 344.214844 C 249.457031 344.445312 249.023438 344.695312 248.613281 344.964844 C 248.214844 345.238281 247.8125 345.535156 247.433594 345.835938 C 247.050781 346.15625 246.683594 346.488281 246.339844 346.828125 C 245.992188 347.179688 245.660156 347.546875 245.339844 347.929688 C 245.039062 348.308594 244.742188 348.710938 244.46875 349.121094 C 244.199219 349.519531 243.949219 349.949219 243.71875 350.378906 C 243.492188 350.808594 243.28125 351.25 243.089844 351.699219 C 242.910156 352.160156 242.738281 352.621094 242.597656 353.09375 C 242.449219 353.550781 242.328125 354.03125 242.238281 354.511719 C 242.140625 354.992188 242.070312 355.484375 242.019531 355.972656 C 241.96875 356.464844 241.941406 356.953125 241.941406 357.445312 C 241.941406 357.933594 241.96875 358.433594 242.019531 358.925781 C 242.070312 359.40625 242.140625 359.894531 242.238281 360.375 C 242.328125 360.855469 242.449219 361.335938 242.597656 361.808594 C 242.738281 362.269531 242.910156 362.738281 243.089844 363.1875 C 243.28125 363.636719 243.488281 364.089844 243.71875 364.519531 C 243.949219 364.949219 244.199219 365.371094 244.46875 365.78125 C 244.742188 366.191406 245.039062 366.582031 245.339844 366.960938 C 245.660156 367.339844 245.992188 367.710938 246.339844 368.0625 C 246.683594 368.402344 247.050781 368.742188 247.433594 369.050781 C 247.8125 369.363281 248.210938 369.652344 248.613281 369.921875 C 249.023438 370.191406 249.453125 370.453125 249.886719 370.683594 C 250.316406 370.902344 250.753906 371.113281 251.207031 371.304688 C 251.65625 371.492188 252.125 371.664062 252.597656 371.804688 C 253.058594 371.945312 253.535156 372.0625 254.015625 372.164062 C 254.496094 372.253906 254.988281 372.335938 255.476562 372.382812 C 255.96875 372.433594 256.457031 372.453125 256.949219 372.453125 C 257.441406 372.453125 257.941406 372.433594 258.429688 372.382812 C 258.910156 372.335938 259.402344 372.253906 259.882812 372.164062 C 260.359375 372.0625 260.839844 371.945312 261.3125 371.804688 C 261.773438 371.664062 262.242188 371.492188 262.691406 371.304688 C 263.144531 371.113281 263.59375 370.902344 264.023438 370.683594 C 264.453125 370.453125 264.875 370.191406 265.285156 369.921875 C 265.695312 369.652344 266.085938 369.363281 266.464844 369.050781 C 266.847656 368.742188 267.21875 368.402344 267.566406 368.0625 C 267.90625 367.710938 268.25 367.339844 268.558594 366.960938 C 268.867188 366.582031 269.15625 366.191406 269.429688 365.78125 C 269.699219 365.371094 269.957031 364.949219 270.1875 364.519531 C 270.410156 364.089844 270.628906 363.636719 270.808594 363.1875 C 271 362.738281 271.167969 362.269531 271.308594 361.808594 C 271.449219 361.335938 271.570312 360.855469 271.667969 360.375 C 271.769531 359.894531 271.839844 359.40625 271.890625 358.925781 C 271.941406 358.433594 271.960938 357.933594 271.960938 357.445312 C 271.960938 356.953125 271.9375 356.464844 271.890625 355.972656 C 271.839844 355.484375 271.769531 354.992188 271.667969 354.511719 Z M 271.667969 354.511719 " style=" fill-rule:nonzero;fill-opacity:1;" stroke="#D80027" fill="#D80027"/>
</g>
</svg>
