<svg width="244" height="64" viewBox="0 0 244 64" fill="none" xmlns="http://www.w3.org/2000/svg">
<g id="Logo-ovdal-white">
<rect width="244" height="64" fill="black" fill-opacity="0"/>
<path id="Path" fill-rule="evenodd" clip-rule="evenodd" d="M244 64H240V0H244V64Z" fill="white"/>
<path id="ovdal_dk" fill-rule="evenodd" clip-rule="evenodd" d="M39.9682 16L49.8188 40.236L59.6927 16H63.6609L49.8188 50L36 16H39.9682ZM71.5977 45.5934H79.3707C82.9499 45.5779 86.0156 44.3101 88.5677 41.7898C91.1198 39.2541 92.3959 36.2005 92.3959 32.6288C92.3959 29.0572 91.1198 26.0036 88.5677 23.4679C86.0156 20.9321 82.9499 19.6643 79.3707 19.6643H71.5977V45.5934ZM79.3469 49.2578H68.1191V16H79.3469C81.6189 16 83.7898 16.4407 85.8595 17.322C87.8514 18.1569 89.6254 19.3397 91.1816 20.8704C92.7222 22.4166 93.9127 24.1792 94.753 26.1583C95.64 28.2147 96.0835 30.3715 96.0835 32.6289C96.0835 34.8709 95.64 37.0277 94.753 39.0996C93.9127 41.0787 92.7144 42.8336 91.1582 44.3643C89.6176 45.9104 87.8514 47.101 85.8595 47.9359C83.7742 48.8172 81.6034 49.2578 79.3469 49.2578ZM135.135 16V45.5935H152.339V49.2578H131.447V16H135.135ZM174.048 45.5934H181.821C185.4 45.5779 188.466 44.3101 191.018 41.7898C193.57 39.2541 194.846 36.2005 194.846 32.6288C194.846 29.0572 193.57 26.0036 191.018 23.4679C188.466 20.9321 185.4 19.6643 181.821 19.6643H174.048V45.5934ZM181.798 49.2578H170.57V16H181.798C184.07 16 186.241 16.4407 188.311 17.322C190.303 18.1569 192.077 19.3397 193.633 20.8704C195.173 22.4166 196.364 24.1792 197.204 26.1583C198.091 28.2147 198.535 30.3715 198.535 32.6289C198.535 34.8709 198.091 37.0277 197.204 39.0996C196.364 41.0787 195.166 42.8336 193.609 44.3643C192.069 45.9104 190.303 47.101 188.311 47.9359C186.225 48.8172 184.055 49.2578 181.798 49.2578ZM229.557 16L213.053 32.397L230 49.2578H224.795L210.439 34.9945L207.545 37.8704V49.2578H203.856V16H207.545V32.6753L224.328 16H229.557Z" fill="white"/>
<path id="Combined_shape" fill-rule="evenodd" clip-rule="evenodd" d="M5.14746 44.8723C6.76172 46.4875 8.61133 47.7419 10.6953 48.6357C12.8574 49.5452 15.1299 50 17.5117 50C19.8779 50 22.1426 49.5452 24.3047 48.6357C26.3887 47.7419 28.2383 46.4875 29.8525 44.8723C31.4824 43.2571 32.7354 41.4067 33.6133 39.3213C34.5381 37.1416 35 34.8679 35 32.5C35 30.1321 34.5381 27.8662 33.6133 25.7024C32.7354 23.6011 31.4824 21.7429 29.8525 20.1277C28.2383 18.5125 26.3887 17.2659 24.3047 16.3877C22.1426 15.4626 19.8779 15 17.5117 15C15.1299 15 12.8574 15.4626 10.6953 16.3877C8.61133 17.2659 6.76172 18.5125 5.14746 20.1277C3.5332 21.7429 2.28027 23.6011 1.38672 25.7024C0.461914 27.8662 0 30.1321 0 32.5C0 34.8679 0.461914 37.1416 1.38672 39.3213C2.28027 41.4067 3.5332 43.2571 5.14746 44.8723ZM3.66699 32.5C3.66699 28.6897 5.02246 25.428 7.7334 22.7151C10.4287 20.0181 13.6885 18.6694 17.5117 18.6694C21.3193 18.6694 24.5713 20.0181 27.2666 22.7151C29.9775 25.428 31.333 28.6897 31.333 32.5C31.333 36.3105 29.9775 39.5723 27.2666 42.2849C24.5713 44.9822 21.3193 46.3308 17.5117 46.3308C13.6885 46.3308 10.4287 44.9822 7.7334 42.2849C5.02246 39.5723 3.66699 36.3105 3.66699 32.5Z" fill="white"/>
<path id="Path_2" fill-rule="evenodd" clip-rule="evenodd" d="M104.017 49L113.988 24.764L123.983 49H128L113.988 15L100 49H104.017Z" fill="white"/>
<path id="Dot" fill-rule="evenodd" clip-rule="evenodd" d="M164 49H160V40H164V49Z" fill="#E74C3C"/>
</g>
</svg>
