<svg width="49" height="64" viewBox="0 0 49 64" fill="none" xmlns="http://www.w3.org/2000/svg">
<rect width="49" height="64" fill="black" fill-opacity="0"/>
<path fill-rule="evenodd" clip-rule="evenodd" d="M49 64H45V0H49V64Z" fill="#E74C3C"/>
<path fill-rule="evenodd" clip-rule="evenodd" d="M5.14746 44.8723C6.76172 46.4875 8.61133 47.7419 10.6953 48.6357C12.8574 49.5452 15.1299 50 17.5117 50C19.8779 50 22.1426 49.5452 24.3047 48.6357C26.3887 47.7419 28.2383 46.4875 29.8525 44.8723C31.4824 43.2571 32.7354 41.4067 33.6133 39.3213C34.5381 37.1416 35 34.8679 35 32.5C35 30.1321 34.5381 27.8662 33.6133 25.7024C32.7354 23.6011 31.4824 21.7429 29.8525 20.1277C28.2383 18.5125 26.3887 17.2659 24.3047 16.3877C22.1426 15.4626 19.8779 15 17.5117 15C15.1299 15 12.8574 15.4626 10.6953 16.3877C8.61133 17.2659 6.76172 18.5125 5.14746 20.1277C3.5332 21.7429 2.28027 23.6011 1.38672 25.7024C0.461914 27.8662 0 30.1321 0 32.5C0 34.8679 0.461914 37.1416 1.38672 39.3213C2.28027 41.4067 3.5332 43.2571 5.14746 44.8723ZM3.66699 32.5C3.66699 28.6897 5.02246 25.428 7.7334 22.7151C10.4287 20.0181 13.6885 18.6694 17.5117 18.6694C21.3193 18.6694 24.5713 20.0181 27.2666 22.7151C29.9775 25.428 31.333 28.6897 31.333 32.5C31.333 36.3105 29.9775 39.5723 27.2666 42.2849C24.5713 44.9822 21.3193 46.3308 17.5117 46.3308C13.6885 46.3308 10.4287 44.9822 7.7334 42.2849C5.02246 39.5723 3.66699 36.3105 3.66699 32.5Z" fill="white"/>
</svg>
