<svg width="398" height="519" viewBox="0 0 398 519" fill="none" xmlns="http://www.w3.org/2000/svg">
<rect width="398" height="519" fill="black" fill-opacity="0"/>
<path opacity="0.15" fill-rule="evenodd" clip-rule="evenodd" d="M41.7705 359.392C54.8672 372.498 69.8716 382.677 86.7832 389.93C104.331 397.31 122.768 401 142.095 401C161.296 401 179.669 397.31 197.217 389.93C214.128 382.677 229.133 372.498 242.229 359.392C255.454 346.287 265.626 331.272 272.747 314.349C280.249 296.663 284 278.213 284 259C284 239.787 280.249 221.401 272.747 203.841C265.626 186.791 255.454 171.713 242.229 158.608C229.133 145.502 214.128 135.386 197.217 128.261C179.669 120.754 161.296 117 142.095 117C122.768 117 104.331 120.754 86.7832 128.261C69.8716 135.386 54.8672 145.502 41.7705 158.608C28.6733 171.713 18.501 186.791 11.2534 203.841C3.75098 221.401 0 239.787 0 259C0 278.213 3.75098 296.663 11.2534 314.349C18.501 331.272 28.6733 346.287 41.7705 359.392ZM29.7544 259C29.7544 228.08 40.7529 201.615 62.751 179.602C84.6216 157.717 111.07 146.774 142.096 146.774C172.994 146.774 199.378 157.717 221.25 179.602C243.247 201.615 254.246 228.08 254.246 259C254.246 289.919 243.247 316.385 221.25 338.398C199.378 360.283 172.994 371.226 142.096 371.226C111.07 371.226 84.6216 360.283 62.751 338.398C40.7529 316.385 29.7544 289.919 29.7544 259Z" fill="#25262D"/>
<path opacity="0.15" fill-rule="evenodd" clip-rule="evenodd" d="M398 519H365V0H398V519Z" fill="#25262D"/>
</svg>
