<svg width="1533" height="444" viewBox="0 0 1533 444" fill="none" xmlns="http://www.w3.org/2000/svg">
<g filter="url(#filter0_i)">
<path fill-rule="evenodd" clip-rule="evenodd" d="M766.5 1703C1189.83 1703 1533 1359.83 1533 936.5C1533 513.174 1189.83 170 766.5 170C343.174 170 0 513.174 0 936.5C0 1359.83 343.174 1703 766.5 1703Z" fill="url(#paint0_linear)"/>
</g>
<mask id="mask0" mask-type="alpha" maskUnits="userSpaceOnUse" x="0" y="170" width="1533" height="1533">
<path fill-rule="evenodd" clip-rule="evenodd" d="M766.5 1703C1189.83 1703 1533 1359.83 1533 936.5C1533 513.174 1189.83 170 766.5 170C343.174 170 0 513.174 0 936.5C0 1359.83 343.174 1703 766.5 1703Z" fill="white"/>
</mask>
<g mask="url(#mask0)">
<g filter="url(#filter1_i)">
<path fill-rule="evenodd" clip-rule="evenodd" d="M441.771 410.31C478.774 407.437 516.01 383.123 524.939 356.003C533.868 328.883 511.11 301.215 474.107 294.204C437.104 287.194 399.868 311.508 390.939 348.511C382.01 385.514 404.768 413.182 441.771 410.31Z" fill="url(#paint1_linear)"/>
</g>
<g filter="url(#filter2_i)">
<path fill-rule="evenodd" clip-rule="evenodd" d="M1103.77 341.31C1140.77 338.437 1178.01 314.123 1186.94 287.003C1195.87 259.883 1173.11 232.215 1136.11 225.204C1099.1 218.194 1061.87 242.508 1052.94 279.511C1044.01 316.514 1066.77 344.182 1103.77 341.31Z" fill="url(#paint2_linear)"/>
</g>
<g filter="url(#filter3_i)">
<path fill-rule="evenodd" clip-rule="evenodd" d="M755.142 501.718C812.361 503.605 864.675 468.797 871.989 423.243C879.303 376.253 836.878 331.624 777.23 326.256C717.582 322.425 665.268 362.136 660.383 411.786C655.498 459.476 697.923 499.202 755.142 501.718Z" fill="url(#paint3_linear)"/>
</g>
</g>
<path fill-rule="evenodd" clip-rule="evenodd" d="M818 310.5L914 199L1013 245.5L972 274L1058 325.5L948 395.5L818 310.5Z" fill="url(#paint4_linear)"/>
<path fill-rule="evenodd" clip-rule="evenodd" d="M592.5 375L620.5 377.5L594.5 396C594.5 396 579.348 389.802 572.5 387C565.652 384.198 592.5 375 592.5 375Z" fill="url(#paint5_linear)"/>
<path fill-rule="evenodd" clip-rule="evenodd" d="M594 395.5L627 377.5L666 376L650.5 430L594 395.5Z" fill="url(#paint6_linear)"/>
<path fill-rule="evenodd" clip-rule="evenodd" d="M900.535 216.4L822.003 162.8L817.195 166V226L900.936 276.4L900.535 216.4Z" fill="#E1E8F2"/>
<path fill-rule="evenodd" clip-rule="evenodd" d="M733.054 199.6L812.387 159.6L817.195 165.6V225.6L733.054 259.2V199.6Z" fill="#D0DBE9"/>
<path fill-rule="evenodd" clip-rule="evenodd" d="M817.195 308.4L900.936 275.6L817.195 225.2L733.054 258.8L817.195 308.4Z" fill="#CBD3DF"/>
<path fill-rule="evenodd" clip-rule="evenodd" d="M733.054 200.4L816.394 250L817.195 309.6L733.054 259.6V200.4Z" fill="#E8EDF3"/>
<path fill-rule="evenodd" clip-rule="evenodd" d="M816.394 250L900.535 217.2L900.936 276.4L817.195 309.6L816.394 250Z" fill="#D5DDE8"/>
<path fill-rule="evenodd" clip-rule="evenodd" d="M785.542 273.6L701 224.8L733.054 200.4L816.394 250L785.542 273.6Z" fill="#EBF1FA"/>
<path fill-rule="evenodd" clip-rule="evenodd" d="M817.195 166L848.849 143.6L932.589 191.6L900.535 217.2L817.195 166Z" fill="#EBF1FA"/>
<path fill-rule="evenodd" clip-rule="evenodd" d="M733.054 200.4L817.195 166L794.757 138L712.219 170.8L733.054 200.4Z" fill="#E1E8F2"/>
<path fill-rule="evenodd" clip-rule="evenodd" d="M858.865 253.2L816.394 250L900.535 217.2L939 220.4L858.865 253.2Z" fill="#EBF1FA"/>
<path fill-rule="evenodd" clip-rule="evenodd" d="M765.179 298.843L768.789 302.863L772.399 295.627L765.179 298.843Z" fill="#D0DBE9"/>
<path fill-rule="evenodd" clip-rule="evenodd" d="M701 292.412L705.212 301.255L711.429 295.628L701 292.412Z" fill="#D0DBE9"/>
<path fill-rule="evenodd" clip-rule="evenodd" d="M903.164 296.431L916 290L911.186 301.255L903.164 296.431Z" fill="#D0DBE9"/>
<path fill-rule="evenodd" clip-rule="evenodd" d="M814.974 322.157L818.985 330.598L822.194 318.941L814.974 322.157Z" fill="#D0DBE9"/>
<path fill-rule="evenodd" clip-rule="evenodd" d="M594.472 395.21C596.83 396.785 604.469 395.875 610.586 393.634C620.29 390.08 625.521 386.94 627.093 383.395C628.666 379.851 628.225 376.293 625.521 375.519C622.818 374.745 618.447 375.125 618.447 375.125C618.447 375.125 624.342 377.094 623.949 379.851C623.556 382.608 603.905 390.09 603.905 390.09L592.507 387.333C592.507 387.333 590.881 392.811 594.472 395.21Z" fill="#D3F1F9"/>
<path fill-rule="evenodd" clip-rule="evenodd" d="M571.472 387.21C573.83 388.785 581.469 387.875 587.586 385.634C597.29 382.08 602.521 378.94 604.093 375.395C605.666 371.851 605.225 368.293 602.521 367.519C599.818 366.745 595.447 367.125 595.447 367.125C595.447 367.125 601.342 369.094 600.949 371.851C600.556 374.608 580.905 382.09 580.905 382.09L569.507 379.333C569.507 379.333 567.881 384.811 571.472 387.21Z" fill="#D3F1F9"/>
<path fill-rule="evenodd" clip-rule="evenodd" d="M605.09 378.195C605.09 378.195 615.995 374.72 619.974 375.025C623.954 375.33 625.606 376.61 624.802 380.177C623.997 383.743 613.538 388.895 605.492 390.877C597.446 392.858 593.021 392.066 592.217 389.688C591.412 387.31 593.596 382.134 593.596 382.134L601.63 384.932L605.09 378.195Z" fill="#3FC3C6"/>
<path fill-rule="evenodd" clip-rule="evenodd" d="M582.09 370.195C582.09 370.195 592.995 366.72 596.974 367.025C600.954 367.33 602.606 368.61 601.802 372.177C600.997 375.743 590.538 380.895 582.492 382.877C574.446 384.858 570.021 384.066 569.217 381.688C568.412 379.31 570.596 374.134 570.596 374.134L578.63 376.932L582.09 370.195Z" fill="#3FC3C6"/>
<path fill-rule="evenodd" clip-rule="evenodd" d="M604.987 132.62L610.207 116.554L590.862 104.898L585.661 123.449L604.987 132.62Z" fill="#FBB99F"/>
<path fill-rule="evenodd" clip-rule="evenodd" d="M655.11 50.0685C655.11 50.0685 656.264 56.2515 652.384 64.9476C648.505 73.6437 649.214 74.704 649.214 74.704C649.214 74.704 650.575 82.1986 651.491 84.5706C652.407 86.9425 652.591 91.566 651.097 93.5696C649.603 95.5732 643.465 98.3321 643.465 98.3321L641.111 100.722L599.807 93.0842C599.807 93.0842 596.046 74.2294 598.853 67.4675C601.659 60.7056 655.11 50.0685 655.11 50.0685Z" fill="#FBB99F"/>
<path fill-rule="evenodd" clip-rule="evenodd" d="M603.104 90.4059C609.489 99.5439 626.63 108.076 626.63 108.076L609.931 117.403L606.532 127.865L587.938 115.514L590.244 106.8C590.244 106.8 595.869 74.8942 598.686 68.0823C601.504 61.2704 596.72 81.2679 603.104 90.4059Z" fill="#EDA180"/>
<path fill-rule="evenodd" clip-rule="evenodd" d="M624.782 90.8917C629.162 87.7456 631.332 78.4816 631.332 78.4816L638.828 77.3733L635.046 95.4729L643.465 98.3321C643.465 98.3321 639.898 112.834 625.823 117.399C618.246 119.857 609.435 117.653 605.375 115.74C591.179 109.051 585.552 101.822 585.552 101.822L612.568 89.8702C612.568 89.8702 620.402 94.0378 624.782 90.8917Z" fill="#CB8E79"/>
<path fill-rule="evenodd" clip-rule="evenodd" d="M661.328 23.6991C661.328 23.6991 658.096 28.5257 652.966 28.9574C647.835 29.3891 635.566 20.8564 625.307 18.3039C615.048 15.7514 603.331 16.6079 603.331 16.6079C603.331 16.6079 605.239 12.1907 604.727 9.92568C604.215 7.66067 602.846 9.31458 602.846 9.31458C602.846 9.31458 601.613 13.1113 600.815 14.1114C600.018 15.1116 595.6 12.417 594.731 13.8134C593.861 15.2099 596.118 15.9432 598.375 16.6766C600.632 17.4099 599.211 19.0472 599.211 19.0472C599.211 19.0472 591.173 23.6287 587.843 27.0234C581.018 33.9815 576.751 44.1708 573.156 57.174C566.644 80.7316 574.667 100.162 585.797 104.304C596.928 108.446 612.568 89.8701 612.568 89.8701C612.568 89.8701 609.534 88.3026 608.16 83.6587C606.787 79.0147 610.345 69.2572 611.59 67.983C612.836 66.7087 615.698 63.0212 621.963 64.2174C628.228 65.4136 627.202 70.1171 627.467 73.1415C627.732 76.1658 631.473 78.6407 631.473 78.6407L638.556 78.4238C638.556 78.4238 643.695 53.649 646.069 52.7414C648.444 51.8338 649.954 53.5839 657.823 49.8444C665.692 46.1049 667.666 40.0301 667.666 40.0301C667.666 40.0301 669.51 33.0738 666.989 29.3162C664.467 25.5585 661.328 23.6991 661.328 23.6991Z" fill="#5D2A25"/>
<path fill-rule="evenodd" clip-rule="evenodd" d="M571 373.892C571 373.892 578.934 310.021 578.934 304.467C578.934 298.913 571 225.124 571 225.124L609.479 223.538L619 216C619 216 619 297.723 619 304.467C619 311.211 604.322 381.826 604.322 381.826C604.322 381.826 603.529 385 599.165 385C594.802 385 593.215 381.826 593.215 381.826C593.215 381.826 601.149 317.162 601.149 312.401C601.149 307.641 595 262.019 595 262.019C595 262.019 595.198 298.913 593.215 310.815C591.231 322.716 582.504 373.495 582.504 373.495C582.504 373.495 582.107 377.066 577.347 377.462C572.587 377.859 571 373.892 571 373.892Z" fill="#E74C3C"/>
<path fill-rule="evenodd" clip-rule="evenodd" d="M569.485 231.592C569.485 231.592 563 209.283 563 169.401C563 154.144 565.382 141.235 570.928 133.507C579.879 121.035 589.907 120.593 596.298 121.144C610.172 122.34 612.551 129.918 615.722 138.692C618.893 147.466 618.893 150.678 618.893 177C618.893 203.322 623 222.419 623 222.419C623 222.419 622.207 228.775 607.794 231.592C593.381 234.408 569.485 231.592 569.485 231.592Z" fill="#4AD3D6"/>
<path fill-rule="evenodd" clip-rule="evenodd" d="M591.5 203.5C598.984 222.942 612.922 262.694 612.922 262.694C612.922 262.694 610.922 286.694 620.922 285.194C630.922 283.694 625.197 267.829 629.422 267.194C633.646 266.558 624.138 250.519 622.922 246.694C616.5 226.5 614.932 219.017 612.048 209.844C607.402 195.062 590.078 199.806 591.5 203.5Z" fill="#FBB99F"/>
<path fill-rule="evenodd" clip-rule="evenodd" d="M601.078 128C589.077 128 589 139.642 588.078 171C587.078 205 597.078 223 597.078 223L614.078 211.5C614.078 211.5 610.078 193 610.078 171C610.078 142.946 610.078 128 601.078 128Z" fill="#3FC3C6"/>
<path fill-rule="evenodd" clip-rule="evenodd" d="M595 226.5L617 220L613.5 206L591 211.5L595 226.5Z" fill="white"/>
<defs>
<filter id="filter0_i" x="0" y="170" width="1566" height="1533" filterUnits="userSpaceOnUse" color-interpolation-filters="sRGB">
<feFlood flood-opacity="0" result="BackgroundImageFix"/>
<feBlend mode="normal" in="SourceGraphic" in2="BackgroundImageFix" result="shape"/>
<feColorMatrix in="SourceAlpha" type="matrix" values="0 0 0 0 0 0 0 0 0 0 0 0 0 0 0 0 0 0 127 0" result="hardAlpha"/>
<feOffset dx="33"/>
<feGaussianBlur stdDeviation="40"/>
<feComposite in2="hardAlpha" operator="arithmetic" k2="-1" k3="1"/>
<feColorMatrix type="matrix" values="0 0 0 0 0 0 0 0 0 0 0 0 0 0 0 0 0 0 1 0"/>
<feBlend mode="normal" in2="shape" result="effect1_innerShadow"/>
</filter>
<filter id="filter1_i" x="389" y="293" width="143.878" height="117.515" filterUnits="userSpaceOnUse" color-interpolation-filters="sRGB">
<feFlood flood-opacity="0" result="BackgroundImageFix"/>
<feBlend mode="normal" in="SourceGraphic" in2="BackgroundImageFix" result="shape"/>
<feColorMatrix in="SourceAlpha" type="matrix" values="0 0 0 0 0 0 0 0 0 0 0 0 0 0 0 0 0 0 127 0" result="hardAlpha"/>
<feOffset dx="6"/>
<feGaussianBlur stdDeviation="3"/>
<feComposite in2="hardAlpha" operator="arithmetic" k2="-1" k3="1"/>
<feColorMatrix type="matrix" values="0 0 0 0 0 0 0 0 0 0 0 0 0 0 0 0 0 0 1 0"/>
<feBlend mode="normal" in2="shape" result="effect1_innerShadow"/>
</filter>
<filter id="filter2_i" x="1051" y="224" width="143.878" height="117.515" filterUnits="userSpaceOnUse" color-interpolation-filters="sRGB">
<feFlood flood-opacity="0" result="BackgroundImageFix"/>
<feBlend mode="normal" in="SourceGraphic" in2="BackgroundImageFix" result="shape"/>
<feColorMatrix in="SourceAlpha" type="matrix" values="0 0 0 0 0 0 0 0 0 0 0 0 0 0 0 0 0 0 127 0" result="hardAlpha"/>
<feOffset dx="6"/>
<feGaussianBlur stdDeviation="3"/>
<feComposite in2="hardAlpha" operator="arithmetic" k2="-1" k3="1"/>
<feColorMatrix type="matrix" values="0 0 0 0 0 0 0 0 0 0 0 0 0 0 0 0 0 0 1 0"/>
<feBlend mode="normal" in2="shape" result="effect1_innerShadow"/>
</filter>
<filter id="filter3_i" x="660" y="326" width="218.809" height="175.792" filterUnits="userSpaceOnUse" color-interpolation-filters="sRGB">
<feFlood flood-opacity="0" result="BackgroundImageFix"/>
<feBlend mode="normal" in="SourceGraphic" in2="BackgroundImageFix" result="shape"/>
<feColorMatrix in="SourceAlpha" type="matrix" values="0 0 0 0 0 0 0 0 0 0 0 0 0 0 0 0 0 0 127 0" result="hardAlpha"/>
<feOffset dx="6"/>
<feGaussianBlur stdDeviation="3"/>
<feComposite in2="hardAlpha" operator="arithmetic" k2="-1" k3="1"/>
<feColorMatrix type="matrix" values="0 0 0 0 0 0 0 0 0 0 0 0 0 0 0 0 0 0 1 0"/>
<feBlend mode="normal" in2="shape" result="effect1_innerShadow"/>
</filter>
<linearGradient id="paint0_linear" x1="1113.04" y1="358.407" x2="-43.1469" y2="560.892" gradientUnits="userSpaceOnUse">
<stop stop-color="#42434C"/>
<stop offset="1" stop-color="#25262D"/>
</linearGradient>
<linearGradient id="paint1_linear" x1="489.107" y1="307.443" x2="386.272" y2="328.573" gradientUnits="userSpaceOnUse">
<stop stop-color="#25262D"/>
<stop offset="1" stop-color="#25262D"/>
</linearGradient>
<linearGradient id="paint2_linear" x1="1151.11" y1="238.443" x2="1048.27" y2="259.573" gradientUnits="userSpaceOnUse">
<stop stop-color="#25262D"/>
<stop offset="1" stop-color="#25262D"/>
</linearGradient>
<linearGradient id="paint3_linear" x1="814.51" y1="347.605" x2="656.203" y2="381.168" gradientUnits="userSpaceOnUse">
<stop stop-color="#25262D"/>
<stop offset="1" stop-color="#25262D"/>
</linearGradient>
<linearGradient id="paint4_linear" x1="803.019" y1="329.433" x2="933.807" y2="437.717" gradientUnits="userSpaceOnUse">
<stop stop-color="#25262D"/>
<stop offset="1" stop-color="#40424A"/>
</linearGradient>
<linearGradient id="paint5_linear" x1="565.925" y1="389.361" x2="580.172" y2="410.853" gradientUnits="userSpaceOnUse">
<stop stop-color="#25262D"/>
<stop offset="1" stop-color="#373840"/>
</linearGradient>
<linearGradient id="paint6_linear" x1="589.406" y1="412.928" x2="628.7" y2="446.53" gradientUnits="userSpaceOnUse">
<stop stop-color="#25262D"/>
<stop offset="1" stop-color="#373840"/>
</linearGradient>
</defs>
</svg>
